<svg width="32" height="32" viewBox="0 0 32 32" fill="none" xmlns="http://www.w3.org/2000/svg">
<g filter="url(#filter0_b_1_928)">
<rect width="32" height="32" rx="16" fill="white" fill-opacity="0.08"/>
<path d="M16 9C12.1342 9 9 12.1531 9 16.0423C9 19.5567 11.5595 22.4697 14.9065 23V18.0784H13.1283V16.0423H14.9065V14.4907C14.9065 12.7243 15.9517 11.7503 17.55 11.7503C18.3158 11.7503 19.1181 11.8876 19.1181 11.8876V13.6195H18.2332C17.3651 13.6195 17.0935 14.1632 17.0935 14.7203V16.0408H19.0334L18.7233 18.077H17.0935V22.9986C20.4405 22.4711 23 19.5574 23 16.0423C23 12.1531 19.8658 9 16 9Z" fill="#D0BC7A"/>
<rect x="0.5" y="0.5" width="31" height="31" rx="15.5" stroke="white" stroke-opacity="0.16"/>
</g>
<defs>
<filter id="filter0_b_1_928" x="-24" y="-24" width="80" height="80" filterUnits="userSpaceOnUse" color-interpolation-filters="sRGB">
<feFlood flood-opacity="0" result="BackgroundImageFix"/>
<feGaussianBlur in="BackgroundImage" stdDeviation="12"/>
<feComposite in2="SourceAlpha" operator="in" result="effect1_backgroundBlur_1_928"/>
<feBlend mode="normal" in="SourceGraphic" in2="effect1_backgroundBlur_1_928" result="shape"/>
</filter>
</defs>
</svg>
